{
  "accessors": [
    {
      "bufferView": 0,
      "componentType": 5125,
      "count": 31560,
      "type": "SCALAR"
    },
    {
      "bufferView": 1,
      "componentType": 5126,
      "count": 5599,
      "max": [
        213.257766723633,
        -97.2403411865234,
        29.0062389373779
      ],
      "min": [
        153.713790893555,
        -156.828491210938,
        -7.52016448974609
      ],
      "type": "VEC3"
    },
    {
      "bufferView": 2,
      "componentType": 5126,
      "count": 5599,
      "type": "VEC3"
    },
    {
      "bufferView": 3,
      "componentType": 5126,
      "count": 5599,
      "type": "VEC4"
    },
    {
      "bufferView": 4,
      "componentType": 5126,
      "count": 5599,
      "type": "VEC2"
    },
    {
      "bufferView": 5,
      "componentType": 5125,
      "count": 162120,
      "type": "SCALAR"
    },
    {
      "bufferView": 6,
      "componentType": 5126,
      "count": 128850,
      "max": [
        213.26496887207,
        -97.2067031860352,
        28.130615234375
      ],
      "min": [
        153.745223999023,
        -156.861465454102,
        -1.78751850128174
      ],
      "type": "VEC3"
    },
    {
      "bufferView": 7,
      "componentType": 5126,
      "count": 128850,
      "type": "VEC3"
    },
    {
      "bufferView": 8,
      "componentType": 5126,
      "count": 128850,
      "type": "VEC4"
    },
    {
      "bufferView": 9,
      "componentType": 5126,
      "count": 128850,
      "type": "VEC2"
    }
  ],
  "asset": {
    "generator": "Adobe Substance 3D Painter 10.0.0",
    "version": "2.0"
  },
  "bufferViews": [
    {
      "buffer": 0,
      "byteLength": 126240,
      "target": 34963
    },
    {
      "buffer": 0,
      "byteLength": 67188,
      "byteOffset": 126240,
      "target": 34962
    },
    {
      "buffer": 0,
      "byteLength": 67188,
      "byteOffset": 193428,
      "target": 34962
    },
    {
      "buffer": 0,
      "byteLength": 89584,
      "byteOffset": 260616,
      "target": 34962
    },
    {
      "buffer": 0,
      "byteLength": 44792,
      "byteOffset": 350200,
      "target": 34962
    },
    {
      "buffer": 0,
      "byteLength": 648480,
      "byteOffset": 394992,
      "target": 34963
    },
    {
      "buffer": 0,
      "byteLength": 1546200,
      "byteOffset": 1043472,
      "target": 34962
    },
    {
      "buffer": 0,
      "byteLength": 1546200,
      "byteOffset": 2589672,
      "target": 34962
    },
    {
      "buffer": 0,
      "byteLength": 2061600,
      "byteOffset": 4135872,
      "target": 34962
    },
    {
      "buffer": 0,
      "byteLength": 1030800,
      "byteOffset": 6197472,
      "target": 34962
    }
  ],
  "buffers": [
    {
      "byteLength": 7228272,
      "uri": "Untitled.bin"
    }
  ],
  "images": [
    {
      "uri": "Main_baseColor.png"
    },
    {
      "uri": "Main_occlusionRoughnessMetallic.png"
    },
    {
      "uri": "Main_normal.png"
    },
    {
      "uri": "Stitches_baseColor.png"
    },
    {
      "uri": "Stitches_occlusionRoughnessMetallic.png"
    },
    {
      "uri": "Stitches_normal.png"
    }
  ],
  "materials": [
    {
      "alphaMode": "OPAQUE",
      "name": "Main",
      "normalTexture": {
        "index": 2
      },
      "occlusionTexture": {
        "index": 1
      },
      "pbrMetallicRoughness": {
        "baseColorTexture": {
          "index": 0
        },
        "metallicRoughnessTexture": {
          "index": 1
        }
      }
    },
    {
      "alphaMode": "OPAQUE",
      "name": "Stitches",
      "normalTexture": {
        "index": 5
      },
      "occlusionTexture": {
        "index": 4
      },
      "pbrMetallicRoughness": {
        "baseColorTexture": {
          "index": 3
        },
        "metallicRoughnessTexture": {
          "index": 4
        }
      }
    }
  ],
  "meshes": [
    {
      "name": "Main",
      "primitives": [
        {
          "attributes": {
            "NORMAL": 2,
            "POSITION": 1,
            "TANGENT": 3,
            "TEXCOORD_0": 4
          },
          "indices": 0,
          "material": 0,
          "mode": 4
        }
      ]
    },
    {
      "name": "Stitches",
      "primitives": [
        {
          "attributes": {
            "NORMAL": 7,
            "POSITION": 6,
            "TANGENT": 8,
            "TEXCOORD_0": 9
          },
          "indices": 5,
          "material": 1,
          "mode": 4
        }
      ]
    }
  ],
  "nodes": [
    {
      "children": [
        1,
        3
      ],
      "name": "RootNode",
      "scale": [
        0.00999999977648258,
        0.00999999977648258,
        0.00999999977648258
      ]
    },
    {
      "children": [
        2
      ],
      "name": "Main",
      "rotation": [
        0.499999731779099,
        -0.500000238418579,
        0.499999821186066,
        0.500000178813934
      ],
      "scale": [
        -1.15480005741119,
        -1.15480005741119,
        -1.15480005741119
      ],
      "translation": [
        147.018966674805,
        9.1483154296875,
        208.800094604492
      ]
    },
    {
      "mesh": 0,
      "name": "Main"
    },
    {
      "children": [
        4
      ],
      "name": "Stitches",
      "rotation": [
        0.499999731779099,
        -0.500000238418579,
        0.499999821186066,
        0.500000178813934
      ],
      "scale": [
        -1.15480005741119,
        -1.15480005741119,
        -1.15480005741119
      ],
      "translation": [
        147.018966674805,
        9.1483154296875,
        208.800094604492
      ]
    },
    {
      "mesh": 1,
      "name": "Stitches"
    }
  ],
  "samplers": [
    {
      "magFilter": 9729,
      "minFilter": 9985,
      "wrapS": 10497,
      "wrapT": 10497
    }
  ],
  "scene": 0,
  "scenes": [
    {
      "name": "Scene",
      "nodes": [
        0
      ]
    }
  ],
  "textures": [
    {
      "sampler": 0,
      "source": 0
    },
    {
      "sampler": 0,
      "source": 1
    },
    {
      "sampler": 0,
      "source": 2
    },
    {
      "sampler": 0,
      "source": 3
    },
    {
      "sampler": 0,
      "source": 4
    },
    {
      "sampler": 0,
      "source": 5
    }
  ]
}